<?xml version="1.0" standalone="no"?><!DOCTYPE svg PUBLIC "-//W3C//DTD SVG 1.1//EN" "http://www.w3.org/Graphics/SVG/1.1/DTD/svg11.dtd"><svg class="icon" width="200px" height="200.00px" viewBox="0 0 1024 1024" version="1.1" xmlns="http://www.w3.org/2000/svg"><path fill="#333333" d="M866.461538 137.846154h-98.461538V98.461538c0-31.507692-25.6-59.076923-59.076923-59.076923-31.507692 0-59.076923 25.6-59.076923 59.076923v39.384616H374.153846V98.461538c0-31.507692-25.6-59.076923-59.076923-59.076923-31.507692 0-59.076923 25.6-59.076923 59.076923v39.384616H157.538462c-43.323077 0-78.769231 35.446154-78.769231 78.769231v49.230769c0 15.753846 13.784615 29.538462 29.538461 29.538461h807.384616c15.753846 0 29.538462-13.784615 29.538461-29.538461V216.615385c0-43.323077-35.446154-78.769231-78.769231-78.769231z m49.23077 256h-807.384616c-15.753846 0-29.538462 13.784615-29.538461 29.538461V905.846154c0 43.323077 35.446154 78.769231 78.769231 78.769231h708.923076c43.323077 0 78.769231-35.446154 78.769231-78.769231V423.384615c0-15.753846-13.784615-29.538462-29.538461-29.538461z m-269.784616 187.076923l-124.061538 263.876923c-5.907692 13.784615-19.692308 21.661538-35.446154 21.661538-21.661538 0-37.415385-17.723077-37.415385-35.446153 0-3.938462 1.969231-9.846154 3.938462-15.753847L557.292308 590.769231h-149.661539c-17.723077 0-33.476923-11.815385-33.476923-29.538462 0-15.753846 15.753846-29.538462 33.476923-29.538461h204.8c19.692308 0 37.415385 15.753846 37.415385 35.446154 0 5.907692-1.969231 9.846154-3.938462 13.784615z" /></svg>